{"title":"Bringing Up Bates - s02e06 - Brandon Pops The Question - 1080","uid":12135305,"size":1563469243,"categoryP":"video","categoryS":"hd___tv_shows","magnet":"?xt=urn:btih:cd758d1baa08e5590ba29240c5c6e13884267165&amp;dn=Bringing+Up+Bates+-+s02e06+-+Brandon+Pops+The+Question+-+1080&amp;tr=udp%3A%2F%2Ftracker.openbittorrent.com%3A80&amp;tr=udp%3A%2F%2Fopen.demonii.com%3A1337&amp;tr=udp%3A%2F%2Ftracker.coppersurfer.tk%3A6969&amp;tr=udp%3A%2F%2Fexodus.desync.com%3A6969","seeders":0,"leechers":0,"uploader":null,"files":13,"time":1437162899,"description":"General\n Complete name : Bringing Up Bates - s02e06 - Brandon Pops The QuestionBringing Up Bates - s02e06 - Brandon Pops The Question.mp4\n Format : MPEG-4\n Format profile : Base Media / Version 2\n Codec ID : mp42\n File size : 1.14 GiB\n Duration : 43mn 44s\n Overall bit rate mode : Variable\n Overall bit rate : 3 726 Kbps\n Encoded date : UTC 2015-07-16 06:46:54\n Tagged date : UTC 2015-07-16 10:45:22\n\n Video\n ID : 1\n Format : AVC\n Format/Info : Advanced Video Codec\n Format profile : &lt;a class=&quot;__cf_email__&quot; href=&quot;/cdn-cgi/l/email-protection&quot; data-cfemail=&quot;165e7f717e565a223826&quot;&gt;[email&amp;#160;protected]&lt;/a&gt;&lt;script data-cfhash='f9e31' type=&quot;text/javascript&quot;&gt;\n/* &lt;![CDATA[ */!function(){try{var t=&quot;currentScript&quot;in document?document.currentScript:function(){for(var t=document.getElementsByTagName(&quot;script&quot;),e=t.length;e--;)if(t[e].getAttribute(&quot;data-cfhash&quot;))return t[e]}();if(t&amp;&amp;t.previousSibling){var e,r,n,i,c=t.previousSibling,a=c.getAttribute(&quot;data-cfemail&quot;);if(a){for(e=&quot;&quot;,r=parseInt(a.substr(0,2),16),n=2;a.length-n;n+=2)i=parseInt(a.substr(n,2),16)^r,e+=String.fromCharCode(i);e=document.createTextNode(e),c.parentNode.replaceChild(e,c)}t.parentNode.removeChild(t);}}catch(u){}}()/* ]]&gt; */&lt;/script&gt;\n Format settings, CABAC : Yes\n Format settings, ReFrames : 4 frames\n Codec ID : avc1\n Codec ID/Info : Advanced Video Coding\n Duration : 43mn 44s\n Bit rate : 3 500 Kbps\n Width : 1 920 pixels\n Height : 1 080 pixels\n Display aspect ratio : 16:9\n Frame rate mode : Variable\n Frame rate : 29.970 fps\n Minimum frame rate : 9.990 fps\n Maximum frame rate : 29.970 fps\n Color space : YUV\n Chroma subsampling : 4:2:0\n Bit depth : 8 bits\n Scan type : Progressive\n Bits/(Pixel*Frame) : 0.056\n Stream size : 1.07 GiB (94%)\n Writing library : x264 core 146 r2538 121396c\n Encoding settings : cabac=1 / ref=3 / deblock=1:0:0 / analyse=0x3:0x133 / me=hex / subme=7 / psy=1 / psy_rd=1.00:0.00 / mixed_ref=1 / me_range=16 / chroma_me=1 / trellis=1 / 8x8dct=1 / cqm=0 / deadzone=21,11 / fast_pskip=1 / chroma_qp_offset=-2 / threads=6 / lookahead_threads=1 / sliced_threads=0 / nr=0 / decimate=1 / interlaced=0 / bluray_compat=0 / constrained_intra=0 / bframes=3 / b_pyramid=2 / b_adapt=1 / b_bias=0 / direct=1 / weightb=1 / open_gop=0 / weightp=2 / keyint=250 / keyint_min=25 / scenecut=40 / intra_refresh=0 / rc_lookahead=40 / rc=2pass / mbtree=1 / bitrate=3500 / ratetol=1.0 / qcomp=0.60 / qpmin=10 / qpmax=51 / qpstep=4 / cplxblur=20.0 / qblur=0.5 / ip_ratio=1.40 / aq=1:1.00\n Encoded date : UTC 2015-07-16 06:46:55\n Tagged date : UTC 2015-07-16 10:45:22\n\n Audio\n ID : 2\n Format : AAC\n Format/Info : Advanced Audio Codec\n Format profile : LC\n Codec ID : 40\n Duration : 43mn 44s\n Bit rate mode : Variable\n Bit rate : 221 Kbps\n Channel(s) : 2 channels\n Channel positions : Front: L R\n Sampling rate : 48.0 KHz\n Compression mode : Lossy\n Stream size : 69.3 MiB (6%)\n Title : Stereo\n Language : English\n Encoded date : UTC 2015-07-16 06:47:19\n Tagged date : UTC 2015-07-16 10:45:20","torrent":{"xt":"urn:btih:cd758d1baa08e5590ba29240c5c6e13884267165","amp;dn":"Bringing+Up+Bates+-+s02e06+-+Brandon+Pops+The+Question+-+1080","amp;tr":["udp%3A%2F%2Ftracker.openbittorrent.com%3A80","udp%3A%2F%2Fopen.demonii.com%3A1337","udp%3A%2F%2Ftracker.coppersurfer.tk%3A6969","udp%3A%2F%2Fexodus.desync.com%3A6969"],"infoHash":"cd758d1baa08e5590ba29240c5c6e13884267165","infoHashBuffer":{"type":"Buffer","data":[205,117,141,27,170,8,229,89,11,162,146,64,197,198,225,56,132,38,113,101]},"announce":[],"urlList":[]}}